<svg xmlns="http://www.w3.org/2000/svg" viewBox="0 0 1200 700" preserveAspectRatio="xMidYMid meet">
  <g fill="#2b1608" stroke="#000" stroke-opacity="0.14" stroke-width="6" stroke-linejoin="round">
    <ellipse cx="520" cy="360" rx="360" ry="160" />
    <ellipse cx="820" cy="270" rx="140" ry="100" transform="rotate(18 820 270)" />
    <rect x="700" y="220" width="140" height="60" rx="30" transform="rotate(8 700 220)" />
    <polygon points="420,470 460,600 480,600 440,470" />
    <polygon points="560,470 600,600 620,600 580,470" />
    <path d="M930 300 q80 -10 140 40 q-20 80 -100 110 q-70 -50 -140 -80 z" />
    <path d="M380 300 q-60 -10 -100 40 q10 60 60 80 q50 -30 80 -80 z" />
    <path d="M880 230 q40 -30 80 -20 q-10 40 -40 60 q-35 -15 -40 -40 z" />
  </g>
</svg>
